<?xml version="1.0" encoding="utf-8"?><!DOCTYPE svg PUBLIC "-//W3C//DTD SVG 1.1//EN" "http://www.w3.org/Graphics/SVG/1.1/DTD/svg11.dtd"><svg version="1.1" xmlns="http://www.w3.org/2000/svg" xmlns:xlink="http://www.w3.org/1999/xlink" x="0px" y="0px" viewBox="0 0 100 106.88874999999999" enable-background="new 0 0 100 85.511" xml:space="preserve"><g><path fill="#010101" d="M45.172,17.244h49.344c3.027,0,5.484-2.453,5.484-5.483c0-3.03-2.458-5.484-5.484-5.484H45.172
		c-3.029,0-5.483,2.454-5.483,5.484C39.689,14.792,42.145,17.244,45.172,17.244z"/><path fill="#010101" d="M94.516,39.175H45.172c-3.029,0-5.483,2.453-5.483,5.482c0,3.032,2.456,5.484,5.483,5.484h49.344
		c3.027,0,5.484-2.453,5.484-5.484C100,41.627,97.543,39.175,94.516,39.175z"/><path fill="#010101" d="M94.516,72.071H45.172c-3.029,0-5.483,2.451-5.483,5.484c0,3.03,2.456,5.481,5.483,5.481h49.344
		c3.027,0,5.484-2.451,5.484-5.481C100,74.522,97.543,72.071,94.516,72.071z"/><path fill="#010101" d="M22.718,7.588h-6.652l-2.053-6.324C13.768,0.509,13.068,0,12.275,0c-0.792,0-1.492,0.509-1.738,1.264
		l-2.06,6.324H1.83c-0.792,0-1.495,0.511-1.742,1.264c-0.242,0.754,0.025,1.578,0.664,2.042l5.384,3.911L4.08,21.129
		c-0.242,0.75,0.022,1.578,0.664,2.042c0.639,0.466,1.507,0.466,2.15,0l5.382-3.91l5.383,3.91c0.321,0.235,0.699,0.35,1.074,0.35
		c0.374,0,0.753-0.115,1.074-0.35c0.643-0.464,0.907-1.292,0.665-2.042l-2.057-6.324l5.384-3.911
		c0.638-0.464,0.905-1.289,0.664-2.042C24.215,8.099,23.512,7.588,22.718,7.588z"/><path fill="#010101" d="M18.403,36.701H6.147c-1.01,0-1.828,0.817-1.828,1.828v12.257c0,1.011,0.818,1.826,1.828,1.826h12.256
		c1.011,0,1.827-0.815,1.827-1.826V38.529C20.23,37.519,19.414,36.701,18.403,36.701z"/><path fill="#010101" d="M18.403,69.598H6.147c-1.01,0-1.828,0.817-1.828,1.827v12.257c0,1.013,0.818,1.829,1.828,1.829h12.256
		c1.011,0,1.827-0.816,1.827-1.829V71.425C20.23,70.415,19.414,69.598,18.403,69.598z"/></g><text x="0" y="100.511" fill="#000000" font-size="5px" font-weight="bold" font-family="'Helvetica Neue', Helvetica, Arial-Unicode, Arial, Sans-serif">Created by Phil Goodwin</text><text x="0" y="105.511" fill="#000000" font-size="5px" font-weight="bold" font-family="'Helvetica Neue', Helvetica, Arial-Unicode, Arial, Sans-serif">from the Noun Project</text></svg>